<svg width="100%" height="100%" viewBox="0 0 63 63" version="1.1" xmlns="http://www.w3.org/2000/svg" xmlns:xlink="http://www.w3.org/1999/xlink" xml:space="preserve" style="fill-rule:evenodd;clip-rule:evenodd;stroke-linejoin:round;stroke-miterlimit:2;">
  <path d="M34.375,21.875l0,-17.188l17.188,17.188m-39.063,-21.875c-3.469,0 -6.25,2.781 -6.25,6.25l0,50c0,3.429 2.821,6.25 6.25,6.25l37.5,0c3.429,0 6.25,-2.821 6.25,-6.25l0,-37.5l-18.75,-18.75l-25,0Z" style="fill:#fff;fill-rule:nonzero;"/>
  <g>
    <path d="M18.098,40.972l-0,8.728l-1.811,0l0,-21.431l7.301,-0c2.228,-0 3.987,0.569 5.277,1.707c1.291,1.138 1.936,2.704 1.936,4.696c0,2.011 -0.621,3.564 -1.862,4.658c-1.241,1.095 -3.04,1.642 -5.395,1.642l-5.446,-0Zm-0,-1.531l5.49,-0c1.757,-0 3.096,-0.417 4.019,-1.251c0.922,-0.835 1.384,-1.997 1.384,-3.489c-0,-1.482 -0.459,-2.662 -1.377,-3.54c-0.917,-0.878 -2.22,-1.327 -3.908,-1.347l-5.608,0l-0,9.627Z" style="fill:#156ae2;fill-rule:nonzero;"/>
    <path d="M44.328,49.7c-0.176,-0.5 -0.289,-1.241 -0.338,-2.222c-0.618,0.804 -1.406,1.425 -2.363,1.862c-0.956,0.436 -1.97,0.655 -3.039,0.655c-1.531,-0 -2.77,-0.427 -3.717,-1.281c-0.947,-0.854 -1.42,-1.933 -1.42,-3.238c-0,-1.551 0.645,-2.777 1.935,-3.68c1.291,-0.903 3.089,-1.354 5.395,-1.354l3.194,-0l0,-1.811c0,-1.138 -0.351,-2.034 -1.052,-2.686c-0.702,-0.653 -1.725,-0.979 -3.069,-0.979c-1.227,-0 -2.243,0.314 -3.047,0.942c-0.805,0.628 -1.207,1.384 -1.207,2.267l-1.767,-0.015c0,-1.266 0.589,-2.362 1.767,-3.29c1.177,-0.927 2.625,-1.391 4.342,-1.391c1.776,0 3.177,0.444 4.202,1.332c1.026,0.889 1.553,2.127 1.583,3.717l-0,7.537c-0,1.54 0.162,2.693 0.486,3.459l-0,0.176l-1.885,0Zm-5.534,-1.265c1.177,-0 2.23,-0.285 3.157,-0.854c0.928,-0.569 1.602,-1.33 2.024,-2.282l0,-3.503l-3.15,-0c-1.756,0.02 -3.13,0.341 -4.121,0.964c-0.991,0.623 -1.487,1.479 -1.487,2.569c-0,0.893 0.331,1.634 0.994,2.222c0.662,0.589 1.523,0.884 2.583,0.884Z" style="fill:#156ae2;fill-rule:nonzero;"/>
  </g>
</svg>
